<svg width="162" height="121" viewBox="0 0 162 121" fill="none" xmlns="http://www.w3.org/2000/svg">
<g id="Quote">
<g id="Group">
<path id="Vector" d="M92.1946 121.005L158.459 121.005C160.044 121.005 161.341 119.709 161.341 118.124L161.341 51.8594C161.341 50.2748 160.044 48.9783 158.459 48.9783L121.005 48.9783L121.005 46.0973C121.005 31.8071 132.645 20.1675 146.935 20.1675L158.459 20.1675C160.044 20.1675 161.341 18.871 161.341 17.2865L161.341 2.88104C161.341 1.29645 160.044 -3.80336e-05 158.459 -3.78951e-05L141.173 -3.63839e-05C112.564 -3.38828e-05 89.3135 23.2791 89.3135 51.8594L89.3136 118.124C89.3136 119.709 90.61 121.005 92.1946 121.005Z" fill="#E0EFF6"/>
</g>
<g id="Group_2">
<path id="Vector_2" d="M2.88116 121.005L69.146 121.005C70.7306 121.005 72.0271 119.709 72.0271 118.124L72.0271 51.8594C72.0271 50.2748 70.7306 48.9784 69.146 48.9784L31.692 48.9784L31.692 46.0973C31.692 31.8071 43.3315 20.1676 57.6217 20.1676L69.146 20.1675C70.7306 20.1675 72.0271 18.8711 72.0271 17.2865L72.0271 2.88106C72.0271 1.29646 70.7306 -2.27748e-05 69.146 -2.26363e-05L51.8595 -2.11251e-05C23.2504 -1.8624e-05 6.77504e-05 23.2791 7.0249e-05 51.8594L7.60421e-05 118.124C7.61806e-05 119.709 1.29656 121.005 2.88116 121.005Z" fill="#E0EFF6"/>
</g>
</g>
</svg>
